<?xml version="1.0" encoding="UTF-8"?>
<svg fill="#FFFFFF" width="800px" height="800px" version="1.1" viewBox="250 0 550 550" xmlns="http://www.w3.org/2000/svg" xmlns:xlink="http://www.w3.org/1999/xlink">
 <g transform='rotate(90 400 400)'>
  <path d="m348.16 23.246c-9.293 0.10938-18.543 1.2617-27.613 3.2891-9.0586 2.0234-17.867 5.0703-26.32 8.8906-8.5039 3.8477-16.645 8.6094-24.23 14.039-3.8281 2.7383-7.5 5.6836-10.898 8.9492-3.2188 3.0938-6.4609 6.5508-8.3164 10.668-1.9141 4.2578-2.1094 8.8789-2.3281 13.469-0.23828 4.957-0.28516 9.9258-0.39062 14.887-0.21484 10.066-0.22656 20.137-0.33594 30.207-0.10937 9.8398-0.41406 19.707 0.57031 29.516 0.48828 4.8789 1.4766 9.6914 2.0312 14.562 0.55469 4.8516 0.64844 9.6992 0.66016 14.578 0.007813 2.5078 0.011719 5.0117 0.019531 7.5195 0 0.60938 0.003907 1.2188 0.003907 1.8281 0 0.33594 0.15234 1.1797 0.003906 1.4648-0.12891 0.24609-0.74219 0.46484-0.98828 0.60547-0.53125 0.30078-1.0586 0.61328-1.5781 0.93359-1.9844 1.2266-3.9453 2.4961-5.8203 3.8867-1.6836 1.2461-3.4023 2.4766-4.875 3.9805-1.3359 1.3633-2.2812 2.8594-2.7891 4.6992-0.55078 1.9961-0.83984 4.2617-0.82031 6.3359 0.007813 0.80469 0.058594 2.0859 0.85938 2.5469 0.83984 0.48047 2.0547-0.054687 2.8555-0.37891 2.2109-0.89062 4.3633-1.9258 6.5195-2.9414 2.1836-1.0312 4.3633-2.0703 6.543-3.1055 0.066406 1.5195-0.10156 3.0938-0.15625 4.6172-0.058594 1.6562-0.11719 3.3125-0.17969 4.9648-0.11719 3.2812-0.23438 6.5625-0.35547 9.8438-0.23438 6.5469-0.51562 13.094-0.68359 19.641-0.33594 13.172-0.66797 26.344-0.86328 39.516-0.19141 12.926-0.41406 25.867-0.16016 38.793 0.25781 13.082 0.75391 26.176 0.75 39.262 0 3.0977-0.035157 6.1992-0.22656 9.2891-0.19922 3.1836-0.53516 6.3594-0.85156 9.5312-0.625 6.3086-0.89453 12.59-1.0742 18.938-0.18359 6.5312-0.16797 13.078-0.11328 19.609 0.054688 6.6641 0.074219 13.328 0.17188 19.992 0.097656 6.6133 0.22266 13.227 0.48828 19.832 0.12891 3.2188 0.30078 6.4766 1.0898 9.6133 0.75 2.9961 2.0547 5.8086 3.3438 8.6016 2.7695 6.0039 5.6211 11.969 8.2969 18.016 1.25 2.8203 2.4805 5.6289 3.75 8.4375 1.1719 2.5898 2.332 5.2656 4.3828 7.2969 2.043 2.0234 4.5742 3.4688 7.0703 4.8516 2.7773 1.5352 5.6406 2.9141 8.5391 4.2031 5.9609 2.6484 12.098 4.8633 18.328 6.7891 12.281 3.793 25.168 6.4766 38.027 7.0352 6.6367 0.28906 13.281 0.28906 19.918-0.042968 6.5391-0.32813 13.023-1.2695 19.441-2.5508 12.688-2.5391 25.137-6.332 36.945-11.637 2.9023-1.3047 5.7461-2.7305 8.5156-4.2891 2.4805-1.3945 5.1094-2.957 6.9336-5.1914 1.8867-2.3125 3.0273-5.1289 4.2344-7.832 1.2539-2.8164 2.5039-5.6445 3.7617-8.4727 2.582-5.8008 5.3398-11.527 7.9922-17.297 1.1133-2.4258 2.2188-4.8789 2.9062-7.4648 0.74219-2.793 1.0039-5.6797 1.1445-8.5586 0.63672-13.125 0.60156-26.285 0.71094-39.422 0.10938-12.832 0.23438-25.797-0.98828-38.555-0.61328-6.3789-1.2305-12.711-1.2656-19.125-0.035156-6.6914 0.17578-13.383 0.31641-20.07 0.14062-6.6836 0.28125-13.367 0.41797-20.055 0.14062-6.6406 0.070312-13.289 0.078125-19.934 0.015625-13.129-0.24219-26.273-0.57812-39.395-0.33984-13.359-0.73047-26.715-1.2109-40.07-0.11328-3.1719-0.22656-6.3398-0.34375-9.5117-0.054687-1.5703-0.11328-3.1445-0.16797-4.7148-0.03125-0.81641-0.058593-1.6328-0.089843-2.4492-0.015625-0.41016-0.03125-0.81641-0.042969-1.2266-0.007812-0.21484-0.11328-0.625 0.007812-0.79688 2.3359 1.1094 4.6719 2.2227 7.0117 3.3242 2.1484 1.0117 4.2891 2.0664 6.5195 2.8945 0.77344 0.28906 1.9375 0.67578 2.6133-0.023438 0.53516-0.55859 0.57812-1.5156 0.57812-2.2344 0.003906-2.2773-0.25391-4.6914-0.91797-6.875-1.2461-4.0742-5.2969-6.6523-8.5898-8.9883-1.9609-1.3945-3.9844-2.6992-6.0703-3.9023-0.27734-0.16016-0.55859-0.32031-0.83594-0.48047-0.33984-0.19531-0.43359-0.22656-0.42969-0.625 0-0.66016 0.003906-1.3242 0.003906-1.9844 0.003906-1.2812 0.007813-2.5586 0.007813-3.8398 0.011718-5.0117-0.11328-10.055 0.26172-15.055 0.36719-4.8555 1.2422-9.6172 1.9062-14.434 1.3516-9.8203 1.2578-19.684 1.1562-29.574-0.10156-10.027-0.24219-20.055-0.38672-30.082-0.074219-4.9961-0.10547-9.9922-0.23438-14.988-0.12109-4.6172-0.16406-9.4023-1.2148-13.922-1.0586-4.5469-3.7227-8.2852-6.8281-11.68-3.207-3.5078-6.8555-6.6016-10.609-9.5039-7.2734-5.625-15.301-10.473-23.543-14.531-8.457-4.1641-17.359-7.4531-26.492-9.7891-9.1289-2.3359-18.578-3.7852-28-4.082-2.2891-0.070312-4.5859-0.09375-6.8789-0.066406zm65.277 352.05c-8.707 0.92188-17.438 1.6211-26.176 2.125-8.2773 0.47656-16.566 0.77734-24.855 0.92188-7.5273 0.12891-15.059 0.12891-22.59 0.003906-6.6094-0.10938-13.215-0.31641-19.816-0.61719-5.3867-0.24609-10.77-0.55469-16.145-0.93359-3.957-0.28125-7.9141-0.59766-11.863-0.96094-1.375-0.12891-2.75-0.26172-4.1211-0.40234-0.27734-0.027344-0.55469-0.058594-0.83203-0.085938-0.085937-0.007812-0.26562 0.007813-0.33984-0.035156-0.20703-0.11719-0.13672-0.62109-0.15234-0.90625-0.10547-2.2578-0.21094-4.5156-0.31641-6.7773-0.41016-8.8281-0.82031-17.652-1.2305-26.48-0.41016-8.8398-0.82031-17.676-1.2305-26.516-0.41016-8.793-0.73438-17.598-1.375-26.379-0.15625-2.1367-0.33203-4.2734-0.51172-6.4062 2.3242-0.17969 4.6484-0.4375 6.9766-0.62891 6.4336-0.52734 12.871-0.94922 19.316-1.2891 9.6328-0.51172 19.277-0.84766 28.922-1.0117 11.98-0.20703 23.965-0.15234 35.945 0.1875 13.508 0.38281 27.008 1.1289 40.469 2.3203 0.4375 0.039063 4.6328 0.41406 4.6328 0.37891-0.99219 12.188-1.4961 24.395-2.0625 36.609-0.56641 12.176-1.1328 24.355-1.6953 36.531-0.31641 6.7812-0.63281 13.566-0.94922 20.352zm-5.5273 88.148c-0.79688 7.1328-1.8398 14.301-5.9258 20.387-3.8789 5.7812-9.707 9.3945-16.09 11.883-6.9453 2.7109-14.301 4.1992-21.711 4.8516-7.7461 0.68359-15.59 0.77344-23.355 0.35547-7.5469-0.40625-15.059-1.4062-22.289-3.668-6.5312-2.043-13.125-4.9375-17.84-10.055-2.2383-2.4258-4.0352-5.25-5.3125-8.293-1.3867-3.2969-2.1133-6.8281-2.625-10.355-1.1094-7.6523-1.7188-15.395-2.3594-23.098-1.2891-15.449-1.9844-30.957-2.707-46.441-0.089843-1.9219-0.17969-3.8438-0.26953-5.7656 4.1562 0.72656 8.332 1.3438 12.516 1.8906 6.5977 0.86328 13.219 1.5391 19.852 2.0547 8.5195 0.66016 17.059 1.0547 25.605 1.1758 10.023 0.14062 20.055-0.089844 30.059-0.73047 11.031-0.70703 22.035-1.9102 32.949-3.6836 1.4023-0.22656 2.8008-0.46484 4.2031-0.71094-0.42188 9.1133-0.76562 18.234-1.3359 27.336-0.57031 9.125-1.0742 18.258-1.8516 27.367-0.44531 5.1719-0.9375 10.34-1.5117 15.5zm13.812-215.97c-0.34766 2.9102-0.71875 5.8203-1.0391 8.7344-0.15625 1.3984-0.30078 2.8008-0.45703 4.1992-0.03125 0.27344-0.003906 1.5664-0.19531 1.6914-0.11719 0.074219-0.61328-0.058594-0.75391-0.074218h0.75781c-8.9219-1.9883-17.828-3.7852-26.91-4.9023-9.1523-1.1289-18.371-1.9336-27.586-2.3555-9.2422-0.42188-18.508-0.45703-27.754-0.125-9.2656 0.33203-18.535 1.0586-27.75 2.1094-9.0703 1.0352-18.012 2.5898-26.922 4.5781-1.0469 0.23438-2.0898 0.49609-3.1406 0.69922-1.3047-11.828-2.7812-23.641-4.1562-35.461-1.3789-11.875-3.1172-23.715-4.707-35.562-0.79688-5.9297-1.5508-11.859-2-17.828-0.22266-2.9609-0.375-5.9297-0.37891-8.8984 0-0.73828 0.007812-1.4766 0.03125-2.2148 0.019531-0.67578-0.082031-1.5586 0.085937-2.2148 0.097656-0.375 0.12891-0.33984 0.50781-0.59375 0.29688-0.19922 0.59375-0.39844 0.89062-0.59766 0.59375-0.39844 1.1875-0.79297 1.7891-1.1797 4.8047-3.1211 9.9414-5.5938 15.215-7.8125 5.3828-2.2656 10.84-4.3711 16.379-6.2227 11.211-3.7461 22.941-5.7461 34.703-6.7344 11.855-0.99609 23.676-0.35156 35.43 1.418 5.8008 0.87109 11.578 2.0117 17.219 3.6289 5.6641 1.625 11.219 3.6484 16.695 5.8203 5.3711 2.1289 10.762 4.3555 15.816 7.1719 2.5039 1.3945 4.8945 2.9688 7.2695 4.5703 0.33594 0.22656 0.34375 0.1875 0.42188 0.53516 0.082031 0.375 0.039062 0.85938 0.054687 1.2422 0.027344 0.74609 0.046875 1.4922 0.054688 2.2422 0.011719 1.4844-0.015625 2.9688-0.070313 4.4531-0.4375 11.887-2.3633 23.688-3.9453 35.461-1.5898 11.844-3.1016 23.691-4.5195 35.559-0.34766 2.8906-0.69141 5.7773-1.0352 8.6641zm-160.44-155.29c-1.3242-1.8633-1.7344-4.2461-1.9844-6.4688-0.29297-2.6211-0.25391-5.2617-0.125-7.8906 0.12109-2.5234 0.27734-5.1289 0.95312-7.5742 0.58984-2.1367 1.6484-4.1172 2.9297-5.918 2.668-3.7539 6.1836-7.0156 9.7773-9.8633 3.8438-3.0469 8.0703-5.6133 12.562-7.5977 2.5234-1.1133 5.1328-2.0352 7.8125-2.6953 0.66406-0.16406 1.3359-0.32422 2.0156-0.42188 0.54297-0.078125 1.3125-0.21875 1.8203 0.074219 0.33203 0.19141 0.42188 0.51562 0.39062 0.88281-0.023438 0.23828-0.23047 1.2031-0.48047 1.2188 0.10938 0.039063-0.96094 1.6875-1.1367 1.9609-0.53906 0.84766-1.0742 1.6992-1.6367 2.5312-1.1484 1.7109-2.3711 3.375-3.6836 4.9609-1.332 1.6133-2.7578 3.1445-4.2969 4.5586-1.5195 1.3984-3.125 2.7109-4.5117 4.2461-2.8281 3.1289-4.5742 7.125-6.2422 10.949-1.75 4.0156-3.3281 8.1094-5.2773 12.035-0.96484 1.9414-2.0898 3.8984-3.7656 5.3164-0.76953 0.65234-1.7617 1.2539-2.8125 1.1914-0.98047-0.058593-1.7695-0.73438-2.3086-1.4961zm4.0781 292.95c-1.7617-16.148-3.2188-32.332-4.1719-48.551-0.94922-16.125-1.4453-32.266-1.8359-48.414-0.39062-16.25-0.41797-32.523-0.12109-48.777 0.19922-10.883 0.65234-21.75 1.1289-32.625 0.11328-2.5938 0.21875-5.1914 0.36328-7.7852 0.015625-0.30078-0.085937-1.6445 0.13281-1.8125 0.16797-0.12891 0.93359 0 1.1406 0h1.043 0.85938c0.24219 0 1.0117-0.13672 1.2109 0 0.14844 0.10156 0.19141 1.0117 0.22656 1.2148 0.074218 0.40625 0.14453 0.80859 0.21875 1.2148 0.1875 1.0508 0.37891 2.1016 0.5625 3.1562 2.8203 15.906 4.7812 31.973 6.5547 48.027 1.7617 15.934 3.25 31.891 4.4766 47.875 1.2422 16.207 2.4531 32.414 3.125 48.656 0.67969 16.367 0.83984 32.758 1.168 49.137 0.32812 16.16 0.63672 32.32 0.86719 48.48 0.054687 3.7773 0.10938 7.5508 0.16016 11.328-2.3203-4.0312-4.543-8.0938-6.1406-12.477-1.6211-4.4492-2.8008-9.0547-3.8672-13.664-2.1914-9.4492-3.7617-19.039-5.0977-28.641-0.75391-5.4375-1.4062-10.887-2.0039-16.344zm3.5039 126.39c-2.1641-1.9102-3.957-3.9727-5.0312-6.6836-1.0977-2.7695-1.6992-5.8008-2.0352-8.7539-0.34766-3.0234-0.20703-6.0195 0.1875-9.0312 0.19141-1.4648 0.4375-2.9219 0.73438-4.3672 0.10938-0.54297 0.17188-1.2461 0.48438-1.7109 0.59766-0.89062 0.83203 1.2266 0.88672 1.5547 0.26562 1.543 0.55469 3.082 0.89453 4.6094 0.64844 2.918 1.4531 5.7969 2.4336 8.6211 0.95703 2.7539 2.0117 5.5547 3.5234 8.0586 1.4727 2.4414 3.5 4.3828 5.7383 6.1211 5.3281 4.1328 11.121 7.8008 16.984 11.125-0.14062-0.078125-0.28125-0.15625-0.41797-0.23438 0.80469 0.48438 1.625 0.94531 2.4648 1.3672-0.37891-0.21094-0.75391-0.41797-1.1328-0.62891 3.0938 1.7109 6.332 3.1094 9.4492 4.7734 0.125 0.066406 0.88281 0.38672 0.73438 0.60156-0.16406 0.23828-1.8633-0.36328-2.0352-0.41016-1.7109-0.47266-3.4023-1-5.0859-1.5586-6.6133-2.1953-13.246-4.5469-19.527-7.5703-3.3008-1.5898-6.4961-3.4531-9.25-5.8828zm168.45-28.84c1.1992 5.543 1.5117 11.168 0.39453 16.746-0.53125 2.6602-1.2266 5.4023-2.6445 7.7461-1.3047 2.1562-3.2773 3.9336-5.25 5.4727-4.1211 3.2227-8.9727 5.3789-13.789 7.3438-5.2188 2.1289-10.551 4.0508-15.934 5.7227-1.4414 0.44922-2.9062 0.94141-4.3945 1.2109-0.47266 0.085938-0.53516-0.0625-0.14062-0.33594 0.40234-0.27734 0.87891-0.48438 1.3086-0.71094 2.8438-1.4844 5.7812-2.7617 8.5898-4.3125-0.37891 0.21094-0.75391 0.41797-1.1328 0.62891 0.83984-0.42187 1.6602-0.88281 2.4648-1.3672-0.14062 0.078125-0.28125 0.15625-0.42188 0.23438 3.4883-1.9766 6.8945-4.1211 10.234-6.3398 3.207-2.1289 6.5273-4.3047 9.3203-6.9688 2.75-2.625 4.3711-5.9219 5.7422-9.418 1.4531-3.707 2.582-7.5391 3.4336-11.43 0.24609-1.1289 0.45312-2.2656 0.66016-3.3984 0.09375-0.5 0.18359-1 0.26172-1.5039 0.046875-0.31641 0.085937-0.97656 0.37891-1.1875 0.56641-0.41016 0.83984 1.5156 0.91797 1.8672zm-1.3711-109.94c-1.1055 11.32-2.3555 22.617-4.0156 33.867-1.6328 11.098-3.6094 22.301-6.8672 33.051-0.87891 2.9023-1.8945 5.7656-3.1758 8.5156-1.293 2.7734-2.8047 5.4336-4.3281 8.082 0.22266-15.703 0.45312-31.406 0.76953-47.109 0.32031-15.855 0.64063-31.715 0.96094-47.57 0.32031-15.871 1.2031-31.762 2.4062-47.59 1.1914-15.676 2.4102-31.344 3.957-46.992 1.5508-15.676 3.3594-31.324 5.5391-46.93 0.54688-3.918 1.125-7.8281 1.7617-11.73 0.30859-1.9062 0.63672-3.8086 0.97266-5.707 0.16406-0.92969 0.33203-1.8594 0.5-2.7891 0.085937-0.48438 0.17578-0.96875 0.26172-1.457 0.03125-0.17188 0.10156-1.125 0.22656-1.2148 0.17969-0.125 0.875 0 1.0898 0h0.97266 0.93359c0.16406 0 0.9375-0.11328 1.0586 0 0.070312 0.066406 0.03125 0.51172 0.035156 0.60156 0.03125 0.51172 0.058594 1.0234 0.089844 1.5352 0.39062 6.668 0.83594 13.336 1.1055 20.012 0.63281 15.762 0.84375 31.535 0.75 47.309-0.09375 15.867-0.42188 31.742-1.0234 47.598-0.59766 15.73-1.5273 31.449-2.8906 47.133-0.32812 3.7969-0.71875 7.5898-1.0898 11.387zm-29.781-328.73c8.3594 1.9141 16.188 6.2695 22.688 11.805 3.043 2.5898 6.0234 5.4648 8.3047 8.7617 1.1055 1.5938 2.0273 3.3203 2.6094 5.1719 0.64063 2.0508 0.85156 4.2461 1 6.3789 0.30469 4.3398 0.53516 9.0273-0.71484 13.25-0.46875 1.582-1.375 3.7695-3.1602 4.2188-1.9062 0.48047-3.6992-1.3633-4.7539-2.7031-1.2422-1.5781-2.125-3.4102-2.9727-5.2188-0.97656-2.082-1.8711-4.1992-2.7656-6.3203-1.7266-4.1016-3.375-8.3359-5.7539-12.113-1.1328-1.7969-2.4844-3.375-4.0352-4.8203-1.5664-1.4531-3.1992-2.8242-4.6797-4.3672-2.9648-3.0898-5.4023-6.5781-7.6992-10.176-0.17188-0.26953-1.25-1.918-1.1367-1.9609-0.23047-0.015625-0.42969-0.88281-0.46094-1.0859-0.054688-0.32422-0.039062-0.67969 0.22266-0.91406 0.75-0.67578 2.457-0.089844 3.3086 0.09375z"/>
 </g>
</svg>
